<svg id="b50e35e9-0eba-45f4-ab14-a7ba0a740098" data-name="Calque 1" xmlns="http://www.w3.org/2000/svg" width="63.25" height="63.25" viewBox="0 0 63.25 63.25"><path d="M404.87,279.08l1.81-5.24.79.28-.79,2.27,2.62.91.78-2.28.8.27-1.82,5.25-.79-.28.79-2.28-2.61-.91-.79,2.29Z" transform="translate(-368.37 -268.38)"/><path d="M410.52,281.35l-.74-.49,4.74-3.51.8.53-1.42,5.73-.74-.5,1.22-4.64,0,0Zm1.33-1.73,2.39,1.6-.39.59-2.39-1.6Z" transform="translate(-368.37 -268.38)"/><path d="M421,283.09l.56.62-2.72,2.44a2,2,0,0,1-.95.48,2,2,0,0,1-1-.1,2.84,2.84,0,0,1-1.55-1.73,1.87,1.87,0,0,1,0-1.05,1.94,1.94,0,0,1,.58-.89l2.72-2.43.56.62-2.67,2.39a1.33,1.33,0,0,0-.39.57,1.23,1.23,0,0,0,0,.66,1.62,1.62,0,0,0,.36.65,1.46,1.46,0,0,0,.62.43,1.11,1.11,0,0,0,.65.05,1.44,1.44,0,0,0,.61-.32Z" transform="translate(-368.37 -268.38)"/><path d="M422.19,285.93l.64-.34,2,3.8-.64.34-.8-1.53-4.28,2.24-.38-.74,4.27-2.24Z" transform="translate(-368.37 -268.38)"/><path d="M420.85,295l5.49-.79.28,2a2.25,2.25,0,0,1-.07,1.09,1.53,1.53,0,0,1-.52.72,1.79,1.79,0,0,1-.86.34,1.75,1.75,0,0,1-.92-.09,1.42,1.42,0,0,1-.68-.54,2.41,2.41,0,0,1-.36-1l-.22-1.49.72-.1.2,1.41a1.66,1.66,0,0,0,.21.64.78.78,0,0,0,.38.32,1.1,1.1,0,0,0,.55,0,1.15,1.15,0,0,0,.52-.19.8.8,0,0,0,.3-.43,1.5,1.5,0,0,0,0-.68l-.14-1-4.78.69Zm2.86,2.36L421.43,299l-.14-.95,2.29-1.68Z" transform="translate(-368.37 -268.38)"/><path d="M421.42,299.86l5.54.39-.25,3.47-.72-.05.19-2.63-1.69-.12-.17,2.45-.72-.05.18-2.46-1.7-.12-.19,2.67-.72-.05Z" transform="translate(-368.37 -268.38)"/><path d="M424.93,310.37l-5.28-1.7.23-.74,4.74-1.43,0-.05-3.88-1.25.26-.8,5.28,1.7-.24.74-4.74,1.44,0,.05,3.88,1.25Z" transform="translate(-368.37 -268.38)"/><path d="M418.15,311.26l1-1.51,4.67,3-1,1.55a2.8,2.8,0,0,1-1,1,2.2,2.2,0,0,1-1.29.24A3.1,3.1,0,0,1,419,315a3.34,3.34,0,0,1-1.08-1.07,2.24,2.24,0,0,1-.31-1.28A2.84,2.84,0,0,1,418.15,311.26Zm1.13-.42-.49.77a2.16,2.16,0,0,0-.37,1,1.47,1.47,0,0,0,.25.9,3.08,3.08,0,0,0,1.86,1.21,1.45,1.45,0,0,0,.92-.15,2,2,0,0,0,.75-.72l.52-.82Z" transform="translate(-368.37 -268.38)"/><path d="M416,314.25l3.84,4-2.51,2.41-.5-.52,1.91-1.83-1.17-1.21-1.78,1.7-.49-.52,1.77-1.7-1.17-1.23L414,317.2l-.5-.52Z" transform="translate(-368.37 -268.38)"/><path d="M415.34,322.28l-.89.49-3.61-2.94-.06,0,.51,4.63-.89.48-2.65-4.87.69-.38,1.93,3.53,0,0-.48-4.3.58-.31,3.36,2.73,0,0L412,317.79l.7-.38Z" transform="translate(-368.37 -268.38)"/><path d="M406.6,320.38l1.28,5.4-3.39.8-.17-.7,2.57-.61-.39-1.64-2.39.57-.16-.7,2.39-.57-.39-1.65-2.6.61-.17-.7Z" transform="translate(-368.37 -268.38)"/><path d="M397.63,326.89l0-5.54h.77l2.8,4.08h0l0-4.07h.83l0,5.54h-.77l-2.81-4.08h0l0,4.08Z" transform="translate(-368.37 -268.38)"/><path d="M395.51,325.89l-.18.69-4.15-1.07.18-.7,1.67.44,1.22-4.68.8.21-1.21,4.67Z" transform="translate(-368.37 -268.38)"/><path d="M385.22,323.14l-1.21.7-.72-.47,1.39-.58Zm4.51-4.34-3,4.64-2.91-1.9.39-.6,2.21,1.44.93-1.41-2.06-1.35.39-.6,2.06,1.35.93-1.42-2.24-1.47.39-.6Z" transform="translate(-368.37 -268.38)"/><path d="M378.85,316.78l4-3.8.53.56-1,4.84,0,0,3-2.79.58.61-4,3.8-.53-.57,1-4.84,0,0-3,2.79Z" transform="translate(-368.37 -268.38)"/><path d="M382.22,312l-4.84,2.72-1.71-3,.63-.36,1.3,2.3,1.47-.82-1.2-2.15.62-.35,1.21,2.14,1.48-.83-1.31-2.33.62-.35Z" transform="translate(-368.37 -268.38)"/><path d="M380.07,307.9l-5.31,1.59-.57-1.9a2.34,2.34,0,0,1-.09-1.09,1.49,1.49,0,0,1,.4-.79,1.89,1.89,0,0,1,.81-.46,1.94,1.94,0,0,1,.92-.05,1.42,1.42,0,0,1,.75.44,2.55,2.55,0,0,1,.52,1l.42,1.43-.69.21-.4-1.36a1.68,1.68,0,0,0-.3-.6.8.8,0,0,0-.44-.27,1.14,1.14,0,0,0-.54,0,1.22,1.22,0,0,0-.49.27.84.84,0,0,0-.23.46,1.69,1.69,0,0,0,.07.68l.3,1,4.63-1.38ZM376.89,306l2-2,.27.92-2,2Z" transform="translate(-368.37 -268.38)"/><path d="M374.81,299.59a1.83,1.83,0,0,0-.44.23,1.67,1.67,0,0,0-.32.33,1.23,1.23,0,0,0-.19.42,1.7,1.7,0,0,0-.05.51,1.56,1.56,0,0,0,.28.84,1.61,1.61,0,0,0,.73.56,2.66,2.66,0,0,0,1.14.17,2.8,2.8,0,0,0,1.13-.27,1.69,1.69,0,0,0,.68-.64,1.74,1.74,0,0,0,0-1.66,1.3,1.3,0,0,0-.54-.5,1.71,1.71,0,0,0-.8-.15l0-.21.07,1.58-.69,0-.1-2.18.63,0a2.32,2.32,0,0,1,1.23.24,2,2,0,0,1,.82.78,2.4,2.4,0,0,1,.34,1.18,2.51,2.51,0,0,1-.29,1.33,2.36,2.36,0,0,1-.95.93,3.39,3.39,0,0,1-1.5.39,3.45,3.45,0,0,1-1.19-.14,2.43,2.43,0,0,1-.92-.47,2.15,2.15,0,0,1-.6-.77,2.41,2.41,0,0,1-.25-1,2.55,2.55,0,0,1,.1-.84,2.24,2.24,0,0,1,.35-.71A2,2,0,0,1,374,299a2.27,2.27,0,0,1,.73-.31Z" transform="translate(-368.37 -268.38)"/><path d="M373,294.91l-1.1-.87.17-.83,1.06,1.06Zm5.71,2.57-5.44-1.09L374,293l.71.14-.52,2.59,1.66.33.48-2.41.71.14-.49,2.42,1.67.33.52-2.62.71.14Z" transform="translate(-368.37 -268.38)"/><path d="M375.21,291.29l-.65-.3,1.75-3.91.66.29-.71,1.58,4.41,2-.34.76-4.41-2Z" transform="translate(-368.37 -268.38)"/><path d="M377.85,284.73l4.61,3.08-.46.7-4.62-3.08Z" transform="translate(-368.37 -268.38)"/><path d="M384.51,281.33a3.24,3.24,0,0,1,.87,1.3,2.39,2.39,0,0,1,.08,1.32,2.44,2.44,0,0,1-.66,1.16,2.35,2.35,0,0,1-2.46.62,3.28,3.28,0,0,1-1.32-.83,3.38,3.38,0,0,1-.86-1.3,2.3,2.3,0,0,1-.08-1.32,2.37,2.37,0,0,1,.65-1.16,2.51,2.51,0,0,1,1.14-.68,2.42,2.42,0,0,1,1.33.05A3.24,3.24,0,0,1,384.51,281.33Zm-.58.59a2.56,2.56,0,0,0-1-.64,1.67,1.67,0,0,0-.93-.07,1.64,1.64,0,0,0-.76.44,1.52,1.52,0,0,0-.43.78,1.65,1.65,0,0,0,.09.92,2.64,2.64,0,0,0,.66.95,2.75,2.75,0,0,0,1,.65,1.73,1.73,0,0,0,.92.07,1.6,1.6,0,0,0,.77-.45,1.58,1.58,0,0,0,.42-.78,1.56,1.56,0,0,0-.08-.92A2.64,2.64,0,0,0,383.93,281.92Zm-.66,2.08.57-.59,1,.11.43,0,1.51.18-.6.62-1-.13-.35-.05Z" transform="translate(-368.37 -268.38)"/><path d="M387.55,276.11l.73-.43,1.85,3.15a1.92,1.92,0,0,1,.28,1,1.9,1.9,0,0,1-.31,1,2.36,2.36,0,0,1-.87.81,2.55,2.55,0,0,1-1.13.37,1.87,1.87,0,0,1-1-.22,1.93,1.93,0,0,1-.75-.75l-1.85-3.15.72-.42,1.81,3.09a1.35,1.35,0,0,0,.49.49,1.23,1.23,0,0,0,.63.16,1.52,1.52,0,0,0,.71-.23,1.44,1.44,0,0,0,.55-.51,1.12,1.12,0,0,0,.17-.64,1.38,1.38,0,0,0-.19-.66Z" transform="translate(-368.37 -268.38)"/><path d="M392.22,280l-1.59-5.32,3.33-1,.21.69-2.53.75.48,1.62,2.36-.7.21.68-2.36.71.49,1.63,2.56-.77.2.69Z" transform="translate(-368.37 -268.38)"/><path d="M400.3,277.06a1.22,1.22,0,0,1-.6-.16,1.18,1.18,0,0,1-.42-.44,1.12,1.12,0,0,1-.16-.6,1.23,1.23,0,0,1,.17-.6,1.29,1.29,0,0,1,.44-.43,1.21,1.21,0,0,1,.6-.15,1.13,1.13,0,0,1,.6.17,1.15,1.15,0,0,1,.42.43,1.18,1.18,0,0,1,.16.61,1.22,1.22,0,0,1-.17.59,1.29,1.29,0,0,1-.44.43A1,1,0,0,1,400.3,277.06Z" transform="translate(-368.37 -268.38)"/><circle cx="31.63" cy="31.63" r="31.25" style="fill:none;stroke:#000;stroke-miterlimit:10;stroke-width:0.75px"/><circle cx="31.63" cy="31.63" r="17.5" style="fill:none;stroke:#000;stroke-miterlimit:10;stroke-width:0.75px"/></svg>